<svg width="44" height="44" viewBox="0 0 44 44" fill="none" xmlns="http://www.w3.org/2000/svg">
<g clip-path="url(#clip0)">
<path d="M39.5798 5.78896H36.6501V2.69723C36.6501 1.56153 35.7738 0.636719 34.6976 0.636719H30.7908C29.7146 0.636719 28.8383 1.56153 28.8383 2.69723V5.78896H15.1635V2.69723C15.1635 1.56153 14.2871 0.636719 13.211 0.636719H9.30231C8.22615 0.636719 7.34981 1.56153 7.34981 2.69723V5.78896H4.42015C2.80498 5.78896 1.49048 7.17618 1.49048 8.8807V40.8331C1.49048 42.5376 2.80498 43.9249 4.42015 43.9249H39.5816C41.1968 43.9249 42.5113 42.5376 42.5113 40.8331V8.8807C42.5113 7.17618 41.1968 5.78896 39.5798 5.78896ZM30.7908 2.69723H34.6976V8.8807H30.7908V2.69723ZM9.30231 2.69723H13.2091V8.8807H9.30231V2.69723ZM40.557 40.8331C40.557 41.4019 40.1188 41.8643 39.5798 41.8643H4.42015C3.88115 41.8643 3.44298 41.4019 3.44298 40.8331V18.1578H40.557V40.8331ZM40.557 16.0973H3.44298V8.8807C3.44298 8.31188 3.88115 7.84947 4.42015 7.84947H7.34981V10.9431H15.1635V7.85141H28.8365V10.9431H36.6501V7.85141H39.5798C40.1188 7.85141 40.557 8.31381 40.557 8.88263V16.0973Z" fill="white"/>
<path d="M28.1437 23.312H24.2368V25.3725H28.1437V23.312Z" fill="white"/>
<path d="M35.9571 23.312H32.0503V25.3725H35.9571V23.312Z" fill="white"/>
<path d="M20.3298 28.4644H16.423V30.5249H20.3298V28.4644Z" fill="white"/>
<path d="M28.1437 28.4644H24.2368V30.5249H28.1437V28.4644Z" fill="white"/>
<path d="M35.9571 28.4644H32.0503V30.5249H35.9571V28.4644Z" fill="white"/>
<path d="M20.3298 33.6187H16.423V35.6792H20.3298V33.6187Z" fill="white"/>
<path d="M28.1437 33.6187H24.2368V35.6792H28.1437V33.6187Z" fill="white"/>
<path d="M35.9571 33.6187H32.0503V35.6792H35.9571V33.6187Z" fill="white"/>
</g>
<defs>
<clipPath id="clip0">
<rect width="44" height="44" fill="white"/>
</clipPath>
</defs>
</svg>
