<svg width="44" height="44" viewBox="0 0 44 44" fill="none" xmlns="http://www.w3.org/2000/svg">
<path d="M32.7882 21.4195C32.567 21.4195 32.348 21.4341 32.1322 21.4631C32.1612 21.2481 32.1758 21.0298 32.1758 20.8096C32.1758 18.6919 30.8372 16.8332 28.8448 16.1847C27.9277 15.8861 26.5273 15.5472 24.8975 15.5472H24.8666C25.4131 14.6468 26.1831 13.4563 27.1199 12.2166C28.9712 9.76666 28.8003 7.32735 26.6621 5.69173C25.6953 4.95202 23.8268 4.14584 21.2739 5.87891C21.2978 5.72005 21.3229 5.55459 21.3506 5.37481C21.8296 2.26801 19.8425 0.443113 17.7936 0.062164C15.5021 -0.364889 13.501 1.47892 12.9609 3.43066C12.727 4.27596 12.4069 5.62068 12.0641 7.28461C11.5681 7.12501 10.939 7.04146 10.0899 7.11101C8.30759 7.25751 6.17045 8.5573 6.01267 11.739C5.82227 15.5858 7.80696 26.043 9.99366 32.6208C10.2733 33.6761 10.6569 34.7373 11.1646 35.7994C13.5345 40.7571 17.5109 43.4206 23.3209 43.9422C23.7116 43.9772 24.1462 44 24.6154 44C27.7388 44 32.3869 42.9848 35.672 37.7796C37.8843 34.2743 38.6479 28.5502 37.4104 24.7479C36.7624 22.7571 34.905 21.4195 32.7882 21.4195ZM14.8812 3.96213C15.181 2.87788 16.3351 1.81718 17.4295 2.02088C18.5159 2.22284 19.6791 3.14285 19.3818 5.07128C19.1143 6.80584 19.0204 7.59376 18.9871 7.93797C17.2664 9.75294 14.6149 12.8753 12.5362 16.7619C13.1882 11.2486 14.3035 6.04914 14.8812 3.96213ZM10.062 23C9.95823 23.4078 9.86434 23.8193 9.78313 24.2348C8.65952 19.2354 7.88737 14.1634 8.0026 11.8374C8.12051 9.4561 9.75495 9.13741 10.253 9.09655C10.9897 9.03589 11.3886 9.12486 11.6748 9.27029C10.9321 13.2451 10.1931 18.3592 10.0579 22.9411C10.0573 22.9612 10.0615 22.9802 10.062 23ZM33.9873 36.716C30.9352 41.5523 26.5982 42.2353 23.4991 41.9579C20.3972 41.6793 16.0206 40.7009 13.2732 35.5527C13.2562 35.4805 13.233 35.4089 13.1987 35.3395C12.7804 34.4913 12.3501 33.3887 11.9248 32.1218C9.16104 21.6668 18.1071 11.6145 21.1318 8.58988C22.2938 7.42803 23.3288 6.84534 24.2249 6.84534C24.6683 6.84534 25.0779 6.98815 25.4518 7.27394C25.9073 7.62241 27.2932 8.68269 25.5304 11.0154C23.9572 13.0975 22.8463 15.0171 22.3989 15.8284C19.9135 16.4067 17.224 17.9899 15.0097 21.5897C14.7214 22.0582 14.8677 22.6718 15.3364 22.9599C15.8047 23.2483 16.4183 23.1019 16.7066 22.6333C20.4099 16.6127 25.5148 17.195 28.2281 18.079C29.5788 18.5187 30.1835 19.7671 30.1835 20.8095C30.1835 21.5772 29.881 22.3035 29.3335 22.8527C28.5693 23.615 27.4358 23.8973 26.4458 23.5726C24.5881 22.9632 22.3477 23.6105 20.7368 25.221C18.4195 27.5385 18.0916 31 19.9903 33.1012C21.174 34.4109 22.9718 35.2204 24.7995 35.2667C26.2508 35.2994 27.5182 34.8595 28.3608 34.0169C30.3971 31.9807 30.6627 29.0992 30.0226 27.1463C29.6971 26.1547 29.9789 25.023 30.7413 24.2622C31.29 23.7138 32.0168 23.4117 32.7882 23.4117C34.0592 23.4117 35.13 24.1782 35.516 25.3642C36.5733 28.613 35.8874 33.7053 33.9873 36.716ZM28.1297 27.7674C28.5799 29.1408 28.3904 31.1701 26.9522 32.6083C26.5058 33.0547 25.7431 33.2974 24.8499 33.2752C23.5573 33.2425 22.2933 32.6781 21.4686 31.7655C20.1614 30.319 20.8022 27.9733 22.1456 26.6299C22.9777 25.7977 24.0215 25.3351 24.982 25.3351C25.2732 25.3351 25.5571 25.3777 25.8248 25.4657C26.5174 25.6929 27.2363 25.7542 27.9326 25.6614C27.8406 26.3571 27.9024 27.075 28.1297 27.7674Z" fill="white"/>
</svg>
