<svg width="47" height="49" viewBox="0 0 47 49" fill="none" xmlns="http://www.w3.org/2000/svg">
<path d="M26.7632 0.952955C26.1278 1.12003 25.7721 1.25382 25.5503 1.34179C25.1703 1.21092 24.8996 1.11603 24.3374 0.950037C22.1965 0.319669 20.0942 0 18.0892 0C13.0899 0 8.93413 1.94341 6.3875 5.47219C3.40198 9.60898 3.36691 14.8789 5.00123 19.6711C2.02088 21.3335 0 24.5218 0 28.1744C0 33.4037 4.14156 37.6816 9.31153 37.8918C9.88388 41.6166 11.3259 46.0975 14.8823 48.1883C15.7366 48.6853 16.8939 48.9818 17.9779 48.9818C18.6936 48.9818 19.3365 48.857 19.8926 48.6092C20.5727 48.303 20.7384 48.083 21.1466 47.6803C21.9799 46.8534 22.2227 45.8944 22.4335 44.8198C22.687 43.5443 22.7212 41.6309 22.7212 39.9274C22.7212 38.8351 22.8714 36.1145 23.4399 33.6357C24.084 30.8272 24.942 29.8307 25.4812 29.8307C25.9944 29.8307 26.3618 30.305 26.5797 30.7031C27.283 31.9874 27.8509 34.0114 28.0481 35.3453C28.5307 38.6508 28.2558 42.0469 28.6508 44.6383C29.0603 47.3693 30.7261 48.9999 33.1068 49C33.1069 49 33.1069 49 33.107 49C34.065 49 35.0771 48.738 36.1148 48.2216C39.0045 46.7843 40.8617 43.4024 41.7924 37.8841C42.4044 34.2765 41.9168 30.2676 42.7006 27.16C42.9632 26.1177 43.2929 25.2736 43.8365 24.2511C51.8868 9.2838 43.9886 -3.5652 26.7632 0.952955ZM2.15779 28.1744C2.15779 23.9856 5.56473 20.6096 9.71007 20.6096C14.5976 20.6096 18.2313 25.2223 17.0362 30.0107C16.1947 33.3731 13.1661 35.7393 9.71007 35.7393C5.54575 35.7393 2.15779 32.3457 2.15779 28.1744ZM41.9345 23.2306C41.3007 24.4226 40.9164 25.4078 40.6084 26.6309C39.746 30.0501 40.2452 34.1024 39.6649 37.523C38.8684 42.2452 37.3512 45.1935 35.1549 46.2858C34.4282 46.6476 33.7201 46.8386 33.1069 46.8386C31.8169 46.8386 31.0355 45.9902 30.7843 44.3148C30.4219 41.9366 30.6853 38.4712 30.1829 35.0306C29.9643 33.5514 29.3355 31.2411 28.4718 29.6638C27.7678 28.3777 26.7058 27.6693 25.4813 27.6693C23.5656 27.6693 22.1712 29.5138 21.3369 33.1518C20.7252 35.8194 20.5636 38.7503 20.5636 39.9273C20.5636 40.8944 20.5636 43.1593 20.3168 44.4003C20.1346 45.3294 19.9985 45.7771 19.6304 46.1424C19.2427 46.5246 19.3078 46.5027 19.0117 46.6361C18.1817 47.0059 16.7554 46.7783 15.9703 46.3217C13.1849 44.6841 11.983 40.9446 11.4709 37.7398C15.7307 36.9551 19.0031 33.3895 19.3828 29.0231C19.8891 23.1945 15.173 18.2203 9.30505 18.4571C8.49718 18.4904 7.70268 18.6269 6.99568 18.8331C3.11068 6.88098 12.1963 -0.720282 24.2991 3.19993C25.9743 4.41992 26.9724 6.37036 26.9724 8.44669C26.9724 9.04356 27.4556 9.52739 28.0513 9.52739C28.6471 9.52739 29.1302 9.04356 29.1302 8.44669C29.1302 6.46762 28.4508 4.57381 27.2482 3.06041C29.1981 2.53725 31.3505 2.19132 33.3838 2.19132C37.935 2.19132 41.47 3.91675 43.3378 7.04968C45.7407 11.0803 45.217 17.1276 41.9345 23.2306Z" fill="white"/>
<path d="M10.789 32.4972V29.2551H14.0257C14.6216 29.2551 15.1046 28.7712 15.1046 28.1744C15.1046 27.5776 14.6216 27.0937 14.0257 27.0937H10.789V23.8516C10.789 23.2548 10.306 22.7709 9.7101 22.7709C9.11422 22.7709 8.6312 23.2548 8.6312 23.8516V27.0937H5.39451C4.79863 27.0937 4.31561 27.5776 4.31561 28.1744C4.31561 28.7712 4.79863 29.2551 5.39451 29.2551H8.6312V32.4972C8.6312 33.0939 9.11422 33.5779 9.7101 33.5779C10.306 33.5779 10.789 33.0939 10.789 32.4972Z" fill="white"/>
<path d="M39.48 8.84923C38.9951 9.19602 38.8827 9.87102 39.229 10.3567C39.2531 10.3904 41.5264 13.9231 37.8787 21.1077C37.5112 21.8315 38.0437 22.6785 38.8394 22.6785C39.2326 22.6785 39.6115 22.4625 39.8019 22.0875C44.0958 13.6304 41.114 9.2815 40.9849 9.10059C40.6388 8.61504 39.965 8.50211 39.48 8.84923Z" fill="white"/>
</svg>
