<svg width="44" height="44" viewBox="0 0 44 44" fill="none" xmlns="http://www.w3.org/2000/svg">
<path d="M21.977 5.61135C15.8019 5.61135 11.3911 12.4399 14.1363 18.7297C17.2392 25.8309 26.7579 25.8244 29.8608 18.7297C32.5196 12.6541 28.5222 5.69574 21.977 5.61135ZM7.5787 41.9935C6.96181 41.9481 6.60401 41.4548 6.60401 40.7667H6.59784C6.59784 37.6575 7.41831 34.756 8.83099 32.2829H1.05199C0.416588 32.2829 0.0156084 31.7961 0.00327031 31.0756C-0.120108 25.7984 3.26046 20.8263 7.94884 19.0023C0.280872 14.4456 3.35916 2.00235 12.1067 2.00235C14.2288 2.00235 16.2399 2.8332 17.7883 4.30666C20.4594 3.10582 23.5439 3.10582 26.215 4.30666C31.6807 -0.879667 40.4405 3.24213 40.4405 11.0768C40.4405 14.4197 38.7132 17.4185 36.0544 19.0023C40.8477 20.8652 43.9321 25.5712 44 31.1795C44 31.7896 43.5312 32.2829 42.9513 32.2829H35.1229C36.5171 34.7171 37.4054 37.8782 37.4054 40.8965C37.4054 41.5067 36.9366 42 36.3567 42L7.5787 41.9935ZM10.3485 30.076C12.1992 27.8041 14.6236 26.0905 17.3749 25.1688C15.3515 24.1562 13.6859 22.488 12.594 20.4368C7.15922 20.1837 2.63123 24.4678 2.14389 30.076H10.3485ZM26.6098 25.1818C29.3488 26.097 31.7609 27.8171 33.6054 30.076H41.8594C41.372 24.4678 36.8441 20.1837 31.4092 20.4368C30.3173 22.4945 28.6394 24.1627 26.6098 25.1818ZM35.2278 39.7931C34.469 27.8301 20.6815 22.1505 12.5817 30.764C10.3794 33.1073 8.94203 36.3593 8.72612 39.7931H35.2278ZM32.3901 17.9248C37.8743 17.4834 40.3418 10.3433 36.4554 6.21502C34.2346 3.85229 30.7368 3.54072 28.1767 5.46206C31.8966 8.22074 33.6362 13.1929 32.3901 17.9248ZM15.8265 5.46206C11.5885 2.27497 5.66017 5.48153 5.66017 11.0768C5.66017 14.6663 8.25112 17.6522 11.6132 17.9248C10.3671 13.1929 12.1067 8.22074 15.8265 5.46206Z" fill="white"/>
<path d="M24.9744 15.637C25.6208 14.2636 27.5096 15.3388 26.8695 16.7122C24.8238 21.0959 19.1762 21.0959 17.1305 16.7122C16.4904 15.3388 18.3793 14.2636 19.0193 15.637C20.2743 18.3214 23.7194 18.3283 24.9744 15.637Z" fill="white"/>
</svg>
