<svg width="44" height="44" viewBox="0 0 44 44" fill="none" xmlns="http://www.w3.org/2000/svg">
<path d="M21.9996 0C34.1312 0 44 9.86968 44 22C44 34.1314 34.1312 44 21.9996 44C9.86881 44 -2.4211e-06 34.1313 -2.4211e-06 22C6.16214e-05 9.86968 9.86881 0 21.9996 0ZM21.9996 41.3623C32.6764 41.3623 41.3622 32.6766 41.3622 22C41.3622 11.3245 32.6764 2.63825 21.9996 2.63825C11.3237 2.63825 2.63778 11.3245 2.63778 22C2.63778 32.6766 11.3237 41.3623 21.9996 41.3623Z" fill="white"/>
<path d="M15.4717 28.5288C19.0707 32.1283 24.9288 32.1283 28.5284 28.5288C29.0434 28.0143 29.8791 28.0133 30.3931 28.5288C30.9087 29.0439 30.9087 29.8795 30.3931 30.3946C28.079 32.7081 25.0396 33.8653 21.9996 33.8653C18.9599 33.8653 15.92 32.7081 13.6064 30.3946C13.0914 29.8795 13.0914 29.0439 13.6064 28.5288C14.1215 28.0134 14.9556 28.0143 15.4717 28.5288Z" fill="white"/>
<path d="M14.5389 14.7983C16.0768 14.7983 17.3234 16.0454 17.3234 17.5832C17.3234 19.1202 16.0768 20.3672 14.5389 20.3672C13.0009 20.3672 11.7544 19.1202 11.7544 17.5832C11.7544 16.0454 13.0009 14.7983 14.5389 14.7983Z" fill="white"/>
<path d="M26.6772 17.5832C26.6772 16.0454 27.9232 14.7983 29.4611 14.7983C30.999 14.7983 32.2456 16.0454 32.2456 17.5832C32.2456 19.1202 30.999 20.3672 29.4611 20.3672C27.9232 20.3672 26.6772 19.1202 26.6772 17.5832Z" fill="white"/>
</svg>
