<svg width="15" height="15" viewBox="0 0 15 15" fill="none" xmlns="http://www.w3.org/2000/svg">
<path d="M14.4338 0.566499C14.0562 0.188776 13.6036 0 13.0764 0H1.92392C1.39655 0 0.944157 0.188844 0.566433 0.566499C0.188777 0.94405 0 1.39651 0 1.92378V13.0761C0 13.6033 0.188743 14.0559 0.566433 14.4335C0.944157 14.8111 1.39665 15 1.92392 15H13.0763C13.6034 15 14.056 14.8111 14.4337 14.4335C14.8114 14.0559 15 13.6033 15 13.0761V1.92378C15 1.39641 14.8114 0.944187 14.4338 0.566499ZM5.38593 5.4052C5.97508 4.83562 6.68312 4.5507 7.50995 4.5507C8.34318 4.5507 9.05441 4.83562 9.64369 5.4052C10.233 5.97488 10.5274 6.66342 10.5274 7.47069C10.5274 8.27785 10.233 8.96643 9.64369 9.53593C9.05441 10.1057 8.34342 10.3906 7.50995 10.3906C6.68315 10.3906 5.97518 10.1055 5.38593 9.53593C4.79665 8.96636 4.50205 8.27785 4.50205 7.47069C4.50205 6.66342 4.79665 5.97491 5.38593 5.4052ZM13.301 12.6759C13.301 12.845 13.2423 12.9866 13.1252 13.1006C13.0078 13.2145 12.868 13.2715 12.7051 13.2715H2.26576C2.09652 13.2715 1.95481 13.2145 1.84097 13.1006C1.72697 12.9868 1.67002 12.845 1.67002 12.6759V6.34754H3.04694C2.91679 6.75776 2.85169 7.18426 2.85169 7.62687C2.85169 8.87715 3.30737 9.94304 4.21883 10.8254C5.13039 11.7074 6.22737 12.1486 7.50992 12.1486C8.35628 12.1486 9.13749 11.9467 9.85388 11.5431C10.57 11.1392 11.1361 10.5908 11.553 9.89741C11.9698 9.20401 12.1781 8.44713 12.1781 7.6269C12.1781 7.18429 12.1128 6.75789 11.9826 6.34757H13.3011V12.6759H13.301V12.6759ZM13.301 3.95495C13.301 4.14376 13.236 4.3033 13.1055 4.43348C12.9754 4.56376 12.816 4.62882 12.627 4.62882H10.9279C10.7392 4.62882 10.5795 4.56373 10.4493 4.43348C10.3192 4.3033 10.2541 4.14376 10.2541 3.95495V2.34378C10.2541 2.16146 10.3192 2.00361 10.4493 1.87011C10.5795 1.73668 10.7392 1.66987 10.9279 1.66987H12.627C12.816 1.66987 12.9754 1.73664 13.1055 1.87011C13.2359 2.00361 13.301 2.16146 13.301 2.34378V3.95495Z" fill="#7C2CFF"/>
</svg>
