<svg width="51" height="51" viewBox="0 0 51 51" fill="none" xmlns="http://www.w3.org/2000/svg">
<path d="M16.4577 17.6322C16.9099 17.6322 17.2754 17.2635 17.2754 16.8098V15.2738C17.2754 14.8202 16.9099 14.4515 16.4577 14.4515C16.0054 14.4515 15.6399 14.8202 15.6399 15.2738V16.8098C15.6399 17.2634 16.0053 17.6322 16.4577 17.6322Z" fill="white" stroke="white" stroke-width="0.2"/>
<path d="M42.3414 30.6768L42.3013 30.5852L42.3414 30.6768C42.837 30.4595 43.1568 29.9678 43.1568 29.4245C43.1568 28.8813 42.837 28.3895 42.3414 28.1722C41.6796 27.8821 41.1563 27.3556 40.8678 26.6892C40.6522 26.1909 40.1636 25.8685 39.6227 25.8685C39.0821 25.8685 38.5934 26.1909 38.3777 26.6893C38.0893 27.3556 37.5661 27.8821 36.9042 28.1722L36.9041 28.1722C36.4085 28.3895 36.0887 28.8812 36.0887 29.4245C36.0887 29.9678 36.4085 30.4595 36.9041 30.6768L36.9042 30.6768C37.5659 30.9668 38.0891 31.4933 38.3776 32.1599C38.5933 32.6582 39.0819 32.9806 39.6227 32.9806C40.1636 32.9806 40.6521 32.6581 40.8677 32.1598C41.1562 31.4935 41.6795 30.9669 42.3414 30.6768ZM39.6226 27.8467C40.0058 28.4977 40.5438 29.039 41.1909 29.4245C40.5437 29.8099 40.0058 30.3512 39.6226 31.0022C39.2395 30.3512 38.7015 29.8099 38.0544 29.4244C38.7015 29.039 39.2395 28.4977 39.6226 27.8467Z" fill="white" stroke="white" stroke-width="0.2"/>
<path d="M48.8977 21.1278L48.8977 21.1278C48.45 21.0713 48.0406 21.3909 47.9843 21.8414L48.0835 21.8538L47.9843 21.8414C47.3088 27.253 46.0133 32.5116 44.3434 36.9635C42.6728 41.4175 40.6306 45.0554 38.4665 47.2332C37.5908 48.1146 36.4286 48.5988 35.1908 48.5988H35.172C32.6429 48.5888 30.5698 46.4557 30.5577 43.8378C30.5448 41.029 29.8638 39.3093 28.8841 38.2921C27.9037 37.2741 26.6403 36.9763 25.5 36.9763C24.3597 36.9763 23.0963 37.2741 22.1159 38.2921C21.1363 39.3093 20.4552 41.0289 20.4423 43.8377C20.4303 46.4556 18.3571 48.5886 15.8279 48.5988H15.8091C14.5715 48.5988 13.4091 48.1145 12.5333 47.2332C12.2697 46.9679 12.0026 46.6753 11.7396 46.3636L11.7396 46.3636C11.4472 46.0172 10.9309 45.9748 10.5865 46.269L10.5864 46.269C10.2424 46.563 10.2004 47.0817 10.4924 47.4277L10.4924 47.4277C10.7838 47.773 11.0811 48.0988 11.3763 48.3958C12.5608 49.5878 14.1342 50.2435 15.8088 50.2435L15.834 50.2435L15.8344 50.2435C19.2634 50.2298 22.0616 47.3574 22.0777 43.8454C22.0899 41.1975 22.7506 39.9008 23.489 39.2622C24.2283 38.6227 25.0688 38.6211 25.4999 38.6211C25.931 38.6211 26.7714 38.6227 27.5108 39.2622C28.2491 39.9008 28.9099 41.1975 28.922 43.8454C28.9383 47.3575 31.7365 50.2299 35.1655 50.2435H35.1659H35.1909C36.8655 50.2435 38.4392 49.5878 39.6234 48.3958C41.9696 46.0346 44.1646 42.18 45.9762 37.256C47.6671 32.6602 48.9563 27.2591 49.607 22.0461C49.6633 21.5962 49.3463 21.1846 48.8977 21.1278Z" fill="white" stroke="white" stroke-width="0.2"/>
<path d="M7.50722 32.0417L7.5072 32.0417C7.4932 32.0093 7.47611 31.995 7.46208 31.9875C7.44631 31.979 7.42722 31.9753 7.40691 31.9753C7.38649 31.9753 7.36742 31.979 7.35168 31.9875C7.33768 31.995 7.32058 32.0092 7.30651 32.0417C6.5867 33.7048 5.28006 35.0199 3.62727 35.7443M7.50722 32.0417L7.59899 32.002C7.55372 31.8973 7.4695 31.8753 7.40691 31.8753C7.34423 31.8753 7.26011 31.8972 7.21474 32.002C6.50491 33.642 5.21666 34.9385 3.58713 35.6527C3.48319 35.6984 3.46128 35.7831 3.46128 35.846C3.46128 35.9091 3.48319 35.9939 3.58722 36.0395M7.50722 32.0417C8.22702 33.7047 9.53363 35.0199 11.1864 35.7444M7.50722 32.0417L11.1864 35.7444M3.62727 35.7443L3.58718 35.6529L3.62735 35.7443C3.62732 35.7443 3.6273 35.7443 3.62727 35.7443ZM3.62727 35.7443C3.59541 35.7583 3.58117 35.7755 3.57353 35.7898C3.56496 35.8059 3.56128 35.8254 3.56128 35.846C3.56128 35.8667 3.56497 35.8863 3.57355 35.9024C3.5812 35.9168 3.59547 35.934 3.62741 35.948M3.62741 35.948C3.6274 35.948 3.62738 35.948 3.62737 35.948L3.58722 36.0395M3.62741 35.948C5.28009 36.6725 6.58671 37.9876 7.30652 39.6507L7.30654 39.6507C7.31689 39.6747 7.32871 39.6881 7.33876 39.6962C7.34806 39.7037 7.35858 39.7088 7.37036 39.7121C7.3799 39.7135 7.38931 39.7151 7.39867 39.7168C7.39962 39.7169 7.40054 39.7169 7.40142 39.717C7.40343 39.7171 7.40526 39.7171 7.40691 39.7171C7.42727 39.7171 7.44632 39.7135 7.46205 39.705C7.47605 39.6975 7.49316 39.6832 7.50722 39.6507C8.22702 37.9878 9.53373 36.6726 11.1864 35.9481C11.2183 35.9341 11.2325 35.9169 11.2402 35.9025C11.2488 35.8864 11.2525 35.8668 11.2525 35.8461C11.2525 35.8255 11.2488 35.806 11.2402 35.7899C11.2326 35.7755 11.2183 35.7584 11.1864 35.7444M3.62741 35.948L3.58722 36.0395M3.58722 36.0395C5.21666 36.7538 6.50491 38.0504 7.21474 39.6904L11.1864 35.7444M48.2555 7.82098C48.2566 7.82049 48.2577 7.82001 48.2588 7.81953L48.2588 7.81952C48.8312 7.56864 49.1871 7.02136 49.1871 6.39393C49.187 5.76647 48.8309 5.21931 48.2588 4.96853C47.301 4.54858 46.5436 3.78642 46.1261 2.82195C45.8771 2.24652 45.3334 1.88778 44.709 1.88778C44.085 1.88778 43.5417 2.24611 43.2924 2.82069C41.3056 1.6642 39.0726 1.05101 36.7812 1.04365L36.7811 1.04365C34.4501 1.03802 32.1595 1.64054 30.1474 2.79133C27.2808 4.43041 23.719 4.43041 20.8525 2.79133C18.8522 1.64745 16.5739 1.04355 14.2606 1.04355L14.2394 1.0436L14.2189 1.04365L14.2186 1.04365C10.707 1.05472 7.38697 2.4682 4.87076 5.02181L4.94199 5.092L4.87076 5.02182C2.29156 7.63942 0.881293 11.0978 0.900187 14.7594C0.930941 20.7071 2.00564 27.5926 3.85595 33.7481C3.5794 33.9362 3.28469 34.1004 2.97373 34.2367C2.32756 34.5198 1.92574 35.1376 1.92564 35.8461C1.92564 36.5546 2.32747 37.1724 2.97361 37.4558L3.01353 37.3647L2.97362 37.4558C4.24618 38.0137 5.2523 39.0262 5.80677 40.3072C5.98188 40.712 6.2868 41.0216 6.66297 41.1977C7.23717 42.4192 7.84056 43.5527 8.46001 44.5688C8.61424 44.8219 8.88294 44.9614 9.15789 44.9614C9.30388 44.9614 9.45174 44.9221 9.58511 44.8397C9.97007 44.6021 10.0902 44.0959 9.85433 43.7091C9.36026 42.8987 8.87537 42.0063 8.40711 41.049C8.66488 40.8679 8.87341 40.6153 9.00668 40.3073C9.56114 39.0263 10.5673 38.0138 11.8399 37.4559C12.4861 37.1726 12.8879 36.5548 12.8879 35.8462C12.8879 35.1377 12.486 34.52 11.8399 34.2368L11.8031 34.3208L11.8399 34.2368C10.5674 33.679 9.56124 32.6665 9.00677 31.3853C8.72557 30.7356 8.11172 30.3306 7.40682 30.3306C6.70182 30.3306 6.08797 30.7356 5.80677 31.3853C5.6393 31.7722 5.42975 32.134 5.18465 32.4668C3.523 26.6668 2.56426 20.2868 2.53563 14.7509C2.51892 11.5289 3.76057 8.48519 6.03246 6.17959L5.96495 6.11307L6.03246 6.17959C8.24182 3.93732 11.1507 2.69815 14.2237 2.68842L14.2423 2.68837L14.2605 2.68832C16.2908 2.68832 18.29 3.21809 20.0439 4.22103L20.0922 4.13657L20.0439 4.22103C20.1454 4.27904 20.2476 4.33455 20.3502 4.38849C19.922 4.88921 19.6248 5.35982 19.3031 5.86911L19.3023 5.87048L19.3022 5.8705L19.2369 5.97389C18.9948 6.3567 19.1067 6.86481 19.4876 7.10882C19.6237 7.19599 19.7759 7.23769 19.9263 7.23769C20.1966 7.23769 20.4612 7.10289 20.6171 6.85655L20.6171 6.85646L20.683 6.75215C21.0702 6.13887 21.3849 5.64185 21.9463 5.07689C24.2453 5.85849 26.7545 5.85849 29.0534 5.07689C29.6149 5.64195 29.9296 6.13914 30.317 6.75246L30.317 6.75249L30.3827 6.85651L30.3828 6.85655C30.5386 7.10288 30.8031 7.23769 31.0734 7.23769C31.2239 7.23769 31.3761 7.19599 31.5122 7.10882L31.5122 7.10881C31.8931 6.86469 32.0049 6.3567 31.7629 5.97391L31.7629 5.97389L31.6978 5.87089L31.6977 5.87083L31.697 5.86975C31.3752 5.36018 31.078 4.88949 30.6497 4.38853C30.7522 4.33459 30.8545 4.27903 30.956 4.22103C32.7206 3.21197 34.731 2.68164 36.7762 2.68842L36.7765 2.59953L36.7762 2.68842C38.7333 2.69458 40.643 3.20604 42.3521 4.17341C42.0073 4.50308 41.6052 4.77302 41.1592 4.96854C40.5869 5.21923 40.2311 5.76651 40.231 6.39391C40.231 7.02128 40.587 7.56853 41.1591 7.8195L41.1993 7.72793L41.1591 7.81951C42.1171 8.23948 42.8745 9.00154 43.2919 9.966C43.541 10.5414 44.0847 10.9002 44.7091 10.9002C45.3334 10.9002 45.8772 10.5413 46.1262 9.96601L46.0345 9.92628L46.1262 9.96601C46.3197 9.51901 46.5864 9.11574 46.912 8.76968C47.9401 10.5982 48.4752 12.6474 48.4642 14.7509L48.5642 14.7514L48.4642 14.7509C48.458 15.9686 48.4069 17.2426 48.3123 18.5375C48.2792 18.9898 48.6168 19.3845 49.0678 19.4178C49.0885 19.4194 49.1087 19.42 49.1286 19.42C49.5537 19.42 49.912 19.0898 49.9435 18.6579C50.0408 17.3262 50.0934 16.0145 50.0998 14.7594C50.1123 12.3138 49.4756 9.93342 48.2555 7.82098ZM7.38528 39.8161C7.3738 39.8139 7.36232 39.8119 7.35064 39.8103L11.2266 36.0396C9.59717 36.7539 8.30882 38.0506 7.59899 39.6905C7.55363 39.7953 7.4695 39.8171 7.40691 39.8171C7.39993 39.8171 7.39265 39.8167 7.38528 39.8161ZM44.2708 4.4269C44.4347 4.18405 44.581 3.92751 44.7081 3.65879C45.2766 4.85958 46.2308 5.82027 47.4276 6.3932C46.2333 6.96536 45.2781 7.9262 44.7089 9.12746C44.1404 7.92758 43.1865 6.96756 41.9902 6.39492C42.9134 5.95256 43.6938 5.27773 44.2637 4.4373C44.2645 4.4362 44.2661 4.43405 44.2678 4.43162L44.2686 4.43043C44.2694 4.42919 44.2701 4.42799 44.2708 4.4269Z" fill="white" stroke="white" stroke-width="0.2"/>
<path d="M35.36 16.8098V15.2738C35.36 14.8202 34.9946 14.4515 34.5422 14.4515C34.0899 14.4515 33.7245 14.8202 33.7245 15.2738V16.8098C33.7245 17.2635 34.0899 17.6322 34.5422 17.6322C34.9946 17.6322 35.36 17.2634 35.36 16.8098Z" fill="white" stroke="white" stroke-width="0.2"/>
<path d="M23.7413 17.9851V16.2148H27.2582V17.9851C27.2582 18.9618 26.4687 19.7555 25.4998 19.7555C24.5308 19.7555 23.7413 18.9618 23.7413 17.9851ZM25.4999 21.4002C27.3719 21.4002 28.8939 19.8676 28.8939 17.9851V16.1001C28.8939 15.2569 28.2122 14.57 27.3728 14.57H23.627C22.7875 14.57 22.106 15.2569 22.106 16.1001V17.9851C22.106 17.9851 22.106 17.9851 22.106 17.9851C22.1059 19.8676 23.6277 21.4002 25.4999 21.4002Z" fill="white" stroke="white" stroke-width="0.2"/>
</svg>
