<svg width="70" height="50" viewBox="0 0 70 50" fill="none" xmlns="http://www.w3.org/2000/svg">
<path d="M25.2119 0.108307C23.6765 0.108307 22.2658 0.80255 20.9019 1.47427C19.7262 2.0529 18.6157 2.59937 17.6215 2.59937C16.6266 2.59937 15.5163 2.0529 14.3412 1.47427C12.9765 0.80255 11.5665 0.108307 10.0311 0.108307C4.24338 0.108307 0.0414734 6.57087 0.0414734 15.4742C0.0414734 20.4635 2.7948 49.1083 10.0311 49.1083C12.4466 49.1083 13.2196 45.0937 14.3896 39.0167C14.9334 36.1885 16.3787 28.6752 17.6164 28.6699C19.3763 28.6763 20.586 35.8138 21.2367 39.6489C22.201 45.3455 22.8387 49.1083 25.2112 49.1083C32.4473 49.1083 35.2009 20.4635 35.2014 15.4742C35.2016 6.57068 30.9997 0.108307 25.2119 0.108307ZM25.3716 46.5951C24.7122 45.7665 24.0474 41.8453 23.6019 39.2154C22.5169 32.8098 21.394 26.1856 17.6159 26.1722C14.4071 26.187 13.3064 31.9049 12.032 38.527C11.4741 41.4296 10.6388 45.7678 9.88639 46.5983C6.49971 46.028 2.44399 25.6206 2.44399 15.474C2.44399 8.1376 5.70506 2.6058 10.0306 2.6058C11.026 2.6058 12.1365 3.15151 13.3109 3.73033C14.6756 4.40205 16.0856 5.09629 17.621 5.09629C19.1553 5.09629 20.5658 4.40205 21.9297 3.73089C23.1054 3.15226 24.2159 2.60523 25.2114 2.60523C29.5369 2.60523 32.798 8.13779 32.798 15.4734C32.798 25.6038 28.7552 45.9622 25.3716 46.5951Z" fill="white"/>
<path d="M60.0104 0.108307C58.4749 0.108307 57.0642 0.80255 55.7003 1.47427C54.5246 2.0529 53.4141 2.59937 52.42 2.59937C51.4251 2.59937 50.3147 2.0529 49.1396 1.47427C47.7749 0.80255 46.365 0.108307 44.8296 0.108307C39.0418 0.108307 34.8399 6.57087 34.8399 15.4742C34.8399 20.4635 37.5934 49.1083 44.8296 49.1083C47.245 49.1083 48.018 45.0937 49.188 39.0167C49.7318 36.1885 51.1771 28.6752 52.4149 28.6699C54.1747 28.6763 55.3845 35.8138 56.0351 39.6489C56.9994 45.3455 57.6372 49.1083 60.0096 49.1083C67.2458 49.1083 69.9993 20.4635 69.9998 15.4742C70 6.57068 65.7981 0.108307 60.0104 0.108307ZM60.17 46.5951C59.5106 45.7665 58.8458 41.8453 58.4003 39.2154C57.3153 32.8098 56.1924 26.1856 52.4143 26.1722C49.2055 26.187 48.105 31.9049 46.8305 38.527C46.2725 41.4296 45.4372 45.7678 44.6848 46.5983C41.2981 46.028 37.2424 25.6206 37.2424 15.474C37.2424 8.1376 40.5035 2.6058 44.829 2.6058C45.8245 2.6058 46.935 3.15151 48.1094 3.73033C49.474 4.40205 50.884 5.09629 52.4194 5.09629C53.9537 5.09629 55.3643 4.40205 56.7282 3.73089C57.9039 3.15226 59.0144 2.60523 60.0098 2.60523C64.3353 2.60523 67.5964 8.13779 67.5964 15.4734C67.5964 25.6038 63.5536 45.9622 60.17 46.5951Z" fill="white"/>
<path d="M68.3539 12.9824H56.1478C55.4611 12.9824 54.9049 13.561 54.9049 14.2742C54.9049 14.9873 55.4611 15.5659 56.1478 15.5659H68.3539C69.0406 15.5659 69.5967 14.9873 69.5967 14.2742C69.5967 13.561 69.0404 12.9824 68.3539 12.9824Z" fill="white"/>
<path d="M47.7769 12.9824H21.6782C20.9915 12.9824 20.4353 13.561 20.4353 14.2742C20.4353 14.9873 20.9915 15.5659 21.6782 15.5659H47.7769C48.4641 15.5659 49.0198 14.9873 49.0198 14.2742C49.0198 13.561 48.4634 12.9824 47.7769 12.9824Z" fill="white"/>
<path d="M12.8418 12.9824H1.24286C0.556164 12.9824 0 13.561 0 14.2742C0 14.9873 0.556164 15.5659 1.24286 15.5659H12.8418C13.5285 15.5659 14.0847 14.9873 14.0847 14.2742C14.0847 13.561 13.5285 12.9824 12.8418 12.9824Z" fill="white"/>
<path d="M21.1275 7.8154H13.6707C12.984 7.8154 12.4278 8.39403 12.4278 9.10719V19.441C12.4278 20.154 12.984 20.7328 13.6707 20.7328H21.1275C21.8142 20.7328 22.3703 20.1541 22.3703 19.441V9.10719C22.3703 8.39403 21.8142 7.8154 21.1275 7.8154ZM19.8848 18.1492H14.9135V10.3988H19.8848V18.1492Z" fill="white"/>
<path d="M56.1478 7.8154H48.691C48.0043 7.8154 47.4482 8.39403 47.4482 9.10719V19.441C47.4482 20.154 48.0043 20.7328 48.691 20.7328H56.1478C56.8351 20.7328 57.3907 20.1541 57.3907 19.441V9.10719C57.3905 8.39403 56.8343 7.8154 56.1478 7.8154ZM54.905 18.1492H49.9337V10.3988H54.905V18.1492Z" fill="white"/>
</svg>
