<svg width="44" height="44" viewBox="0 0 44 44" fill="none" xmlns="http://www.w3.org/2000/svg">
<path d="M28 14.5422L26.7519 13L18.4496 18.3976L15.6279 15.4096L14 16.6627L18.124 21L28 14.5422Z" fill="white"/>
<path d="M8.18011 39.0416L11.3979 44L18.8038 30.2319C19.0741 30.5401 19.4083 30.793 19.7859 30.9751C20.1636 31.1572 20.5767 31.2647 21 31.291C21.4233 31.2647 21.8364 31.1572 22.2141 30.9751C22.5917 30.793 22.9259 30.5401 23.1962 30.2319L30.6022 44L33.8199 39.0416L40 39.523L32.1344 24.9365L32.5941 24.8403C33.6156 24.6477 34.7903 24.3589 35.3522 23.4442C35.914 22.5295 35.5565 21.4705 35.25 20.5558C35.0517 20.1139 34.9476 19.6395 34.9436 19.1597C35.1979 18.7691 35.527 18.4263 35.914 18.1488C36.6801 17.4748 37.5484 16.7046 37.5484 15.5974C37.5484 14.4902 36.6801 13.7199 35.914 13.046C35.5453 12.764 35.2338 12.4215 34.9946 12.035C34.9987 11.5552 35.1028 11.0809 35.3011 10.6389C35.6075 9.72429 35.9651 8.66521 35.4032 7.75055C34.8414 6.83589 33.6667 6.59519 32.6452 6.35449C32.1606 6.2932 31.6928 6.1462 31.2661 5.92123C31.0274 5.51911 30.8715 5.07812 30.8065 4.62144C30.5511 3.65864 30.2957 2.55142 29.3253 2.02188C28.3548 1.49234 27.2312 1.82932 26.2608 2.11816C25.7919 2.30505 25.2886 2.4032 24.7796 2.407C24.3651 2.16724 24.0014 1.85711 23.707 1.49234C22.9919 0.818381 22.1747 0 21 0C19.8253 0 19.0081 0.818381 18.293 1.54048C17.9939 1.88797 17.6305 2.18155 17.2204 2.407C16.7114 2.4032 16.2081 2.30505 15.7392 2.11816C14.7688 1.82932 13.6452 1.49234 12.6747 2.02188C11.7043 2.55142 11.4489 3.70678 11.2446 4.66958C11.1796 5.12626 11.0236 5.56725 10.7849 5.96937C10.3583 6.19435 9.89044 6.34134 9.40591 6.40263C8.38441 6.59519 7.20968 6.88403 6.64785 7.79869C6.08602 8.71335 6.44355 9.77243 6.75 10.6871C6.94829 11.129 7.05241 11.6034 7.05645 12.0832C6.81725 12.4697 6.50578 12.8122 6.1371 13.0941C5.37097 13.7681 4.50269 14.5383 4.50269 15.6455C4.50269 16.7527 5.37097 17.523 6.1371 18.1969C6.5241 18.4745 6.85314 18.8172 7.10753 19.2079C7.06478 19.6778 6.92603 20.1355 6.69893 20.5558C6.39247 21.4705 6.03495 22.5295 6.59677 23.4442C7.1586 24.3589 8.33333 24.5996 9.35484 24.8403L9.81452 24.9365L2 39.523L8.18011 39.0416ZM11.2446 40.0525L9.25269 37.0197L5.47312 37.3085L11.2446 26.6214C11.4489 27.5842 11.7554 28.6433 12.7258 29.1729C13.6962 29.7024 14.8199 29.3654 15.7903 29.0766C16.2592 28.8897 16.7625 28.7916 17.2715 28.7877L11.2446 40.0525ZM32.7473 37.0197L30.7554 40.0525L24.7285 28.8359C25.2375 28.8397 25.7408 28.9378 26.2097 29.1247C27.1801 29.4136 28.3038 29.7505 29.2742 29.221C30.2446 28.6915 30.5 27.6324 30.7554 26.6696L36.5269 37.3085L32.7473 37.0197ZM8.38441 22.4814C8.28226 22.2888 8.53763 21.5186 8.63979 21.0853C8.74194 20.6521 9.20161 19.4486 8.94624 18.6302C8.69086 17.8118 8.07796 17.2823 7.41398 16.7046C6.75 16.1269 6.39247 15.8381 6.39247 15.5974C6.39247 15.3567 7.00538 14.8271 7.41398 14.4902C7.82258 14.1532 8.74194 13.3348 8.94624 12.5646C9.15054 11.7943 8.89516 10.8797 8.63979 10.1094C8.38441 9.33917 8.23118 8.90591 8.38441 8.76149C8.53763 8.61707 9.35484 8.37637 9.81452 8.28009C10.2742 8.18381 11.6022 7.89497 12.2151 7.31729C12.828 6.73961 13.0323 5.87309 13.2366 5.0547C13.4409 4.23632 13.543 3.80306 13.7473 3.70678C13.9516 3.6105 14.7688 3.8512 15.1774 3.94748C15.586 4.04376 16.914 4.47702 17.7823 4.23632C18.6505 3.99562 19.2124 3.41794 19.8253 2.79212C20.4382 2.1663 20.7446 1.82932 21 1.82932C21.2554 1.82932 21.8172 2.407 22.1747 2.79212C22.5323 3.17724 23.4005 4.04376 24.2177 4.23632C25.0349 4.42888 26.0054 4.18818 26.8226 3.94748C27.6398 3.70678 28.0995 3.56236 28.2527 3.70678C28.4059 3.8512 28.6613 4.62144 28.7634 5.0547C28.8656 5.48797 29.172 6.73961 29.7849 7.31729C30.3979 7.89497 31.3172 8.08753 32.1855 8.28009C33.0538 8.47265 33.4624 8.56893 33.6156 8.76149C33.7688 8.95405 33.4624 9.72429 33.3602 10.1575C33.2581 10.5908 32.7984 11.7943 33.0538 12.6127C33.3091 13.4311 33.922 13.9606 34.586 14.5383C35.25 15.116 35.6075 15.4048 35.6075 15.6455C35.6075 15.8862 34.9946 16.4158 34.586 16.7527C34.1774 17.0897 33.2581 17.9081 33.0538 18.6783C32.8495 19.4486 33.1048 20.3632 33.3602 21.1335C33.6156 21.9037 33.7688 22.337 33.6156 22.4814C33.4624 22.6258 32.6452 22.8665 32.1855 22.9628C31.7258 23.0591 30.3979 23.3479 29.7849 23.9256C29.172 24.5033 28.9677 25.3698 28.7634 26.1882C28.5591 27.0066 28.457 27.4398 28.2527 27.5361C28.0484 27.6324 27.2312 27.3917 26.8226 27.2954C26.414 27.1991 25.086 26.7659 24.2177 27.0066C23.3495 27.2473 22.7876 27.8249 22.1747 28.4508C21.5618 29.0766 21.2554 29.4136 21 29.4136C20.7446 29.4136 20.1828 28.8359 19.8253 28.4508C19.4677 28.0656 18.5995 27.1991 17.7823 27.0066L17.1183 26.9103C16.4546 26.9471 15.8005 27.0769 15.1774 27.2954C14.7177 27.4398 13.9005 27.6805 13.6962 27.5361C13.4919 27.3917 13.2876 26.6214 13.1855 26.1882C13.0833 25.7549 12.7769 24.5033 12.164 23.9256C11.5511 23.3479 10.6317 23.1554 9.76344 22.9628C8.89516 22.7702 8.53763 22.674 8.38441 22.4814Z" fill="white"/>
</svg>
