<svg width="22" height="15" viewBox="0 0 22 15" fill="none" xmlns="http://www.w3.org/2000/svg">
<path d="M21.065 1.44545C20.4682 0.392727 19.8206 0.199091 18.502 0.125455C17.1848 0.0368182 13.8724 0 11.0027 0C8.12762 0 4.81387 0.0368183 3.498 0.124091C2.18212 0.199091 1.53312 0.391364 0.930875 1.44545C0.31625 2.49682 0 4.30773 0 7.49591C0 7.49864 0 7.5 0 7.5C0 7.50273 0 7.50409 0 7.50409V7.50682C0 10.6814 0.31625 12.5059 0.930875 13.5464C1.53312 14.5991 2.18075 14.79 3.49662 14.8786C4.81387 14.955 8.12762 15 11.0027 15C13.8724 15 17.1847 14.955 18.5034 14.88C19.822 14.7914 20.4696 14.6005 21.0664 13.5477C21.6865 12.5073 22 10.6827 22 7.50818C22 7.50818 22 7.50409 22 7.50136C22 7.50136 22 7.49864 22 7.49727C22 4.30773 21.6865 2.49682 21.065 1.44545ZM8.25 11.5909V3.40909L15.125 7.5L8.25 11.5909Z" fill="#7C2CFF"/>
</svg>
