<svg width="41" height="51" viewBox="0 0 41 51" fill="none" xmlns="http://www.w3.org/2000/svg">
<path d="M39.4142 9.82143L39.4142 9.82152C41.0999 16.7846 39.3374 24.7904 37.781 31.8205M39.4142 9.82143L37.6834 31.7989M39.4142 9.82143C38.7841 7.22891 36.9505 4.75408 34.2532 2.86011C30.9145 0.513443 26.2035 0.258432 21.9675 2.17853C21.9673 2.17862 21.9671 2.17872 21.9669 2.17881L21.8162 2.24462L21.8162 2.24455M39.4142 9.82143L21.8162 2.24455M37.781 31.8205L37.6834 31.7989M37.781 31.8205C37.781 31.8205 37.781 31.8204 37.781 31.8204L37.6834 31.7989M37.781 31.8205C37.7409 32.0031 37.7007 32.1853 37.6607 32.3671C37.4279 33.4245 37.1984 34.4663 36.9911 35.4779M37.6834 31.7989C37.6432 31.9815 37.6031 32.1637 37.5631 32.3454C37.3302 33.4028 37.1006 34.4455 36.8932 35.4579L36.9911 35.4779M36.9911 35.4779L36.9911 35.478C36.9911 35.4779 36.9911 35.4779 36.9911 35.4779ZM21.8162 2.24455L21.8126 2.2463M21.8162 2.24455L21.8126 2.2463M21.8126 2.2463C21.7464 2.2784 21.6737 2.31012 21.6093 2.33356L21.6086 2.3338M21.8126 2.2463L21.6086 2.3338M21.6086 2.3338C21.3243 2.43948 21.0967 2.535 20.9058 2.61514C20.8554 2.6363 20.8075 2.6564 20.7618 2.67531L20.7608 2.67575M21.6086 2.3338L20.7608 2.67575M20.7608 2.67575C20.4059 2.82737 20.253 2.89073 20.0481 2.88247C19.8337 2.87384 19.5616 2.78691 18.9769 2.59788L18.9768 2.59785M20.7608 2.67575L18.9768 2.59785M18.9768 2.59785C17.3261 2.06624 15.4481 1.5351 13.5775 1.29331C11.7075 1.0516 9.83666 1.09791 8.20414 1.72857L8.2041 1.72859M18.9768 2.59785L8.2041 1.72859M8.2041 1.72859C3.79735 3.43336 -0.0773747 9.06062 1.12033 17.7574L1.12039 17.7578M8.2041 1.72859L1.12039 17.7578M1.12039 17.7578C1.26467 18.7778 1.40138 19.8144 1.53816 20.8516L1.53818 20.8518M1.12039 17.7578L1.53818 20.8518M1.53818 20.8518C2.53325 28.3335 3.56772 36.0781 6.22433 43.0768L6.31545 43.3173L6.31549 43.3174L6.32879 43.3526C6.65713 44.2223 7.09544 45.3832 7.69007 46.3313C8.28985 47.2877 9.06998 48.0615 10.0865 48.0615H10.2385H10.2604M1.53818 20.8518L10.2604 48.0615M10.2604 48.0615L10.2803 48.0523M10.2604 48.0615L10.2803 48.0523M10.2803 48.0523L10.4247 47.9859L10.4249 47.9858M10.2803 48.0523L10.4249 47.9858M10.4249 47.9858C12.2238 47.1525 12.8957 45.2668 13.372 43.9295L13.4035 43.841M10.4249 47.9858L13.4035 43.841M13.4035 43.841L13.3172 43.804M13.4035 43.841L13.3172 43.804M13.3172 43.804L11.9039 43.1983L11.8062 43.1564M13.3172 43.804L11.8062 43.1564M11.8062 43.1564L11.7704 43.2566M11.8062 43.1564L11.7704 43.2566M11.7704 43.2566C11.2883 44.6056 10.8476 45.6516 9.94568 46.177C9.77463 46.1156 9.58668 45.9479 9.39111 45.693C9.18409 45.4231 8.98077 45.0718 8.79113 44.6942C8.41206 43.9395 8.09464 43.0938 7.91593 42.6163L7.91578 42.6159M11.7704 43.2566L7.91578 42.6159M7.91578 42.6159L7.8246 42.3753L7.73175 42.4105M7.91578 42.6159L7.73175 42.4105M7.73175 42.4105L7.8246 42.3753C5.25363 35.5928 4.23657 27.9715 3.25609 20.5932L7.73175 42.4105ZM2.83807 17.4893L2.83808 17.4893C2.9825 18.5185 3.11931 19.5559 3.25605 20.5929L3.25608 20.5931L2.83807 17.4893ZM2.83807 17.4893C2.44859 14.7186 2.64399 11.7135 3.5842 9.15249C4.52401 6.59255 6.20511 4.48248 8.78537 3.48323L8.7854 3.48322M2.83807 17.4893L8.7854 3.48322M8.7854 3.48322C10.1639 2.94882 11.8554 2.9382 13.5641 3.17788C15.2662 3.41664 16.9741 3.90209 18.3872 4.35267C20.8174 5.86233 22.0105 6.93245 22.6043 8.28294C23.2017 9.64164 23.1999 11.2967 23.1923 14.0099V14.0101V15.1053C23.1923 15.6084 23.5709 16.035 24.0521 16.035C24.5333 16.035 24.9119 15.6084 24.9119 15.1053V14.0188C24.9195 11.6506 24.9223 9.8899 24.4834 8.38172C24.0533 6.90373 23.2015 5.67427 21.5398 4.34427M8.7854 3.48322L21.5398 4.34427M21.5398 4.34427C21.7155 4.26906 21.9254 4.1841 22.1799 4.08939L22.1813 4.08883C22.2908 4.04614 22.3996 3.99519 22.505 3.94589L22.5065 3.94519L22.5072 3.94485L22.6269 3.88765C22.6272 3.88751 22.6275 3.88736 22.6278 3.88722C26.3628 2.1985 30.4572 2.40912 33.3177 4.41768C35.6668 6.0673 37.2363 8.15606 37.7533 10.2917C39.3272 16.7945 37.6252 24.5358 36.1117 31.3955C35.8305 32.657 35.5645 33.8854 35.3136 35.0806L35.3135 35.0812L35.0931 36.1682L35.0931 36.1683C34.4999 39.1166 33.8866 42.1552 32.5192 44.7621L32.5191 44.7623C32.2898 45.2015 32.061 45.5374 31.8538 45.7587C31.7501 45.8694 31.6542 45.9488 31.5689 45.9987C31.4842 46.0482 31.4161 46.065 31.3638 46.0615C31.2349 46.0452 30.9309 45.9171 30.4789 45.1834C30.0269 44.4497 29.4391 43.1298 28.7373 40.7726L28.7072 40.6716L28.6079 40.707L27.1642 41.2214L27.0749 41.2532L27.1019 41.344C27.5618 42.892 28.0922 44.4708 28.7471 45.6908C29.3982 46.9038 30.1908 47.7973 31.1905 47.9114L21.5398 4.34427ZM36.7708 36.5564C36.7708 36.5563 36.7708 36.5562 36.7708 36.5562L36.7708 36.5564ZM10.383 47.8953L10.3829 47.8952L10.383 47.8953Z" fill="white" stroke="white" stroke-width="0.2"/>
<path d="M26.7412 36.4306L26.7413 36.4311C26.8836 36.9153 26.6515 37.4371 26.1939 37.6068L26.1933 37.607L25.2561 37.9481V43.3624V43.4624H25.1561H23.7365V46.1253V46.1563L23.7189 46.1819L21.0595 50.0566L21.0298 50.1H20.9771H18.6976H18.645L18.6152 50.0566L15.9558 46.1819L15.9382 46.1563V46.1253V43.4624H14.5186H14.4186V43.3624V41.619L14.0228 41.7548C13.9307 41.7942 13.8408 41.803 13.7588 41.803C13.3908 41.803 13.0587 41.5453 12.9411 41.1508L12.941 41.1504C12.7985 40.6654 13.0393 40.143 13.4978 39.9824L13.4983 39.9822L14.4186 39.6653V36.6408L14.0228 36.7766C13.9307 36.816 13.8408 36.8248 13.7588 36.8248C13.3908 36.8248 13.0587 36.5671 12.9411 36.1726L12.941 36.1722C12.7985 35.6872 13.0393 35.1648 13.4978 35.0042L13.4983 35.004L14.4186 34.6871V31.6626L14.0228 31.7985C13.9307 31.8378 13.8408 31.8466 13.7588 31.8466C13.3908 31.8466 13.0587 31.5889 12.9411 31.1944L12.941 31.194C12.7985 30.709 13.0393 30.1866 13.4978 30.026L13.4983 30.0258L14.4186 29.7089V26.7684V25.109V21.45V21.4112L14.4448 21.3825L17.1726 18.4039L17.2023 18.3714H17.2464H22.436H22.48L22.5097 18.4039L25.2375 21.3825L25.2637 21.4112V21.45V25.109V26.0441L25.6456 25.903L25.6458 25.903L25.6804 25.9968C26.0831 25.8474 26.5162 26.088 26.6454 26.5195L26.7412 36.4306ZM26.7412 36.4306C26.5976 35.9509 26.1092 35.6709 25.6456 35.8428M26.7412 36.4306L25.6456 35.8428M22.0244 41.603H22.1244H23.5213V38.527L22.379 38.9428L22.3734 38.9448L22.3733 38.9447C22.2849 38.971 22.191 38.9903 22.1016 38.9903C21.736 38.9903 21.4029 38.7434 21.2843 38.3558C21.1333 37.8784 21.3742 37.3474 21.8249 37.1865L23.5213 36.5717V33.5571L22.379 33.9729L22.3734 33.9749L22.3733 33.9748C22.2849 34.0011 22.191 34.0204 22.1016 34.0204C21.736 34.0204 21.4029 33.7735 21.2843 33.3859C21.1333 32.9086 21.3742 32.3777 21.8247 32.2167C21.8247 32.2167 21.8248 32.2166 21.8249 32.2166L23.5213 31.6018V28.5872L22.379 29.003L22.3734 29.005L22.3733 29.0049C22.2849 29.0312 22.191 29.0505 22.1016 29.0505C21.736 29.0505 21.4029 28.8036 21.2843 28.416C21.1333 27.9387 21.3741 27.4079 21.8245 27.2468C21.8246 27.2468 21.8248 27.2468 21.8249 27.2467L22.9326 26.8435H16.123V29.0923L18.8013 28.1675C18.8015 28.1674 18.8016 28.1674 18.8017 28.1674C19.2654 28.0052 19.7446 28.2859 19.8877 28.773C20.0302 29.258 19.7894 29.7804 19.3309 29.941L19.3307 29.941L16.1306 31.0544V34.0788L18.8089 33.154C18.809 33.154 18.809 33.1539 18.8091 33.1539C19.2728 32.9916 19.7522 33.2723 19.8953 33.7595C20.0378 34.2445 19.797 34.7669 19.3385 34.9275L19.3383 34.9275L16.1382 36.0409V39.0653L18.8165 38.1405L22.0244 41.603ZM22.0244 41.603V41.703V45.5466L20.1723 48.2406H19.5176L17.6655 45.5466V41.703V41.603H17.5655H16.1458M22.0244 41.603H16.1458M16.1458 41.603V41.0274L19.3459 39.914L19.3461 39.914C19.8046 39.7534 20.0454 39.231 19.9029 38.746C19.7598 38.2589 19.2806 37.9782 18.817 38.1403L16.1458 41.603ZM25.6456 35.8428L25.2637 35.9839V32.9699L26.2003 32.629C26.2004 32.629 26.2005 32.6289 26.2007 32.6289C26.651 32.4679 26.8918 31.9372 26.7409 31.4599C26.597 30.9808 26.109 30.7012 25.6458 30.8729L25.6456 35.8428ZM26.2005 27.659C26.6509 27.4981 26.8918 26.9673 26.7409 26.49L25.6456 30.8729L25.2637 31.014V28L26.2003 27.6591C26.2004 27.6591 26.2004 27.659 26.2005 27.659ZM16.1382 25.009V22.1775L17.921 20.2308H21.7613L23.5365 22.1693V25.009H16.1382Z" fill="white" stroke="white" stroke-width="0.2"/>
</svg>
