<svg width="49" height="49" viewBox="0 0 49 49" fill="none" xmlns="http://www.w3.org/2000/svg">
<path d="M11.7389 25.8943C12.0986 26.193 12.2776 26.6319 12.2172 27.0664C11.0946 35.0882 12.1891 41.5253 15.4716 46.2014C15.9083 46.8209 16.4701 47.3914 17.2249 47.9855C17.46 48.1764 17.8304 48.4395 18.3529 48.5155C18.4338 48.5258 18.5189 48.5306 18.6074 48.5306C19.4199 48.5306 20.5031 48.0972 20.7721 47.1552C20.8654 46.8436 20.8805 46.5001 20.8568 46.1459C20.874 46.0246 20.8746 45.899 20.8481 45.7723C20.2955 43.1546 19.724 40.448 20.0793 37.8438C20.3295 36.0231 21.2762 33.6475 23.1838 32.4403C23.6243 32.1616 24.0734 32.0165 24.481 32.0084C24.9259 32.0165 25.375 32.1616 25.8155 32.4403C27.7236 33.6475 28.6698 36.0231 28.92 37.8433C29.2753 40.4475 28.7043 43.1546 28.1517 45.7723C28.1253 45.8984 28.1258 46.0224 28.1425 46.1432C28.1177 46.4964 28.1323 46.8371 28.2239 47.1428C28.5259 48.1996 29.8247 48.6191 30.668 48.5128C31.1689 48.4395 31.5393 48.1769 31.7609 47.9963C32.5292 47.3914 33.091 46.8209 33.5293 46.1993C36.8102 41.5258 37.9047 35.0882 36.7827 27.0675C36.7223 26.6319 36.9007 26.193 37.2593 25.8954C43.4446 20.7755 46.575 11.0726 41.3758 4.78865C38.4724 1.27975 33.2204 -0.580369 28.3097 0.161524C27.0151 0.353467 25.7362 0.737353 24.4999 1.30456C23.2636 0.737353 21.9847 0.353467 20.6923 0.162063C15.78 -0.580368 10.5269 1.27975 7.62402 4.78865C2.42539 11.0721 5.55524 20.7755 11.7389 25.8943ZM9.28573 6.16298C11.6856 3.26173 16.2447 1.66957 20.3731 2.29446C21.61 2.47778 22.836 2.87137 24.0157 3.46391C24.0546 3.48332 24.0966 3.49357 24.1371 3.50759C24.1775 3.5367 24.2174 3.56743 24.2627 3.59116C25.7794 4.39452 27.1505 5.51814 28.2277 6.83963C28.4407 7.10113 28.7512 7.237 29.064 7.237C29.3033 7.237 29.5444 7.15774 29.7444 6.99437C30.2059 6.61857 30.2755 5.93923 29.8991 5.4777C29.0418 4.42525 28.0223 3.4844 26.9014 2.69291C27.4723 2.51606 28.0487 2.37965 28.6288 2.29392C32.7578 1.67011 37.3143 3.26227 39.7141 6.16298C44.4879 11.9337 40.5568 20.3657 35.8828 24.2347C34.9446 25.0144 34.4826 26.1838 34.647 27.3651C35.6908 34.8277 34.7214 40.7478 31.7657 44.9576C31.4519 45.4019 31.0271 45.8289 30.414 46.3114C30.3801 46.3395 30.3547 46.3578 30.3369 46.3702C30.3218 46.368 30.3051 46.3643 30.2884 46.3605C30.3008 46.0877 30.3795 45.6709 30.4113 45.5038C30.9289 43.016 31.4277 40.2647 31.0572 37.5505C30.6486 34.5706 29.12 31.9788 26.9693 30.6179C26.1897 30.1246 25.3653 29.8669 24.4816 29.8523C23.6351 29.8669 22.8107 30.1246 22.0311 30.6179C19.8803 31.9782 18.3523 34.5706 17.9431 37.5511C17.5727 40.2658 18.0714 43.0171 18.589 45.5048C18.6198 45.6666 18.6996 46.0877 18.7114 46.3632C18.6958 46.3675 18.6812 46.3718 18.6694 46.3745C18.65 46.361 18.6192 46.3384 18.5734 46.3012C17.9733 45.8289 17.5479 45.4024 17.2363 44.9603C14.2795 40.7478 13.3101 34.8283 14.3539 27.3646C14.5178 26.1844 14.0557 25.0144 13.1165 24.2342C8.44248 20.3657 4.51142 11.9337 9.28573 6.16298Z" fill="white"/>
<path d="M30.0581 17.9902C31.0405 17.9902 31.8368 17.1938 31.8368 16.2114C31.8368 15.2291 31.0405 14.4327 30.0581 14.4327C29.0758 14.4327 28.2794 15.2291 28.2794 16.2114C28.2794 17.1938 29.0758 17.9902 30.0581 17.9902Z" fill="white"/>
<path d="M18.9415 17.9902C19.9239 17.9902 20.7203 17.1938 20.7203 16.2114C20.7203 15.2291 19.9239 14.4327 18.9415 14.4327C17.9592 14.4327 17.1628 15.2291 17.1628 16.2114C17.1628 17.1938 17.9592 17.9902 18.9415 17.9902Z" fill="white"/>
<path d="M19.1563 21.4537C18.7201 21.8592 18.6958 22.5418 19.1013 22.978C20.5608 24.5469 22.4781 25.4107 24.4999 25.4107C26.5218 25.4107 28.4391 24.5469 29.8986 22.978C30.304 22.5418 30.2798 21.8597 29.8436 21.4537C29.4074 21.0483 28.7254 21.0725 28.3194 21.5087C27.2729 22.634 25.9163 23.2535 24.4999 23.2535C23.0835 23.2535 21.727 22.634 20.6805 21.5087C20.275 21.0731 19.593 21.0483 19.1563 21.4537Z" fill="white"/>
</svg>
