<svg width="49" height="49" viewBox="0 0 49 49" fill="none" xmlns="http://www.w3.org/2000/svg">
<g clip-path="url(#clip0)">
<path d="M40.2888 19.4902C40.4072 18.494 40.4839 17.4891 40.4839 16.4733C40.4839 11.9636 36.8746 8.29517 32.4377 8.29517C30.8312 8.29517 29.2294 8.81136 27.8057 9.7871C26.9657 10.3639 26.0212 10.6558 25 10.6558C23.9788 10.6558 23.0343 10.3639 22.1943 9.7871C20.7706 8.81136 19.1688 8.29517 17.5623 8.29517C13.1254 8.29517 9.51613 11.9636 9.51613 16.4733C9.51613 17.4891 9.59277 18.4948 9.71122 19.4918C9.26374 19.5571 8.83174 19.6255 8.41445 19.6963C8.01032 18.9992 7.27174 18.5247 6.41935 18.5247C5.20077 18.5247 4.20981 19.4862 4.11535 20.6996C2.00335 21.3944 1 22.2089 1 23.246C1 25.4878 6.31019 26.6634 11.937 27.2819C12.4952 28.4615 13.1432 29.604 13.8872 30.6962C15.6477 33.2811 16.9213 36.1391 17.6723 39.1898L18.5006 42.5569C18.7801 43.6963 19.7835 44.4919 20.9386 44.4919C22.3244 44.4919 23.4516 43.3462 23.4516 41.9376V31.9017C23.4516 31.0338 24.1461 30.3279 25 30.3279C25.8539 30.3279 26.5484 31.0338 26.5484 31.9017V41.9376C26.5484 43.3462 27.6756 44.4919 29.0614 44.4919C30.2165 44.4919 31.2199 43.6963 31.4993 42.5569L32.3277 39.1898C33.0779 36.1391 34.3515 33.2811 36.1128 30.6962C36.8544 29.6072 37.5017 28.467 38.0591 27.2898C39.2335 27.1552 40.3499 27.0034 41.3827 26.8318C41.4508 26.8208 41.5073 26.7877 41.5677 26.761C41.9664 27.4778 42.7143 27.9673 43.5806 27.9673C44.8139 27.9673 45.8157 26.9829 45.8893 25.7483C45.8939 25.7483 45.8986 25.7506 45.9032 25.7506C45.986 25.7506 46.0712 25.7365 46.1548 25.7074C47.3757 25.2809 49 24.5624 49 23.246C49 22.5614 48.9938 20.7618 40.2888 19.4902ZM17.5623 9.86894C18.8591 9.86894 20.1613 10.2923 21.3288 11.0925C22.4297 11.8472 23.6645 12.2296 25 12.2296C26.3355 12.2296 27.5703 11.8472 28.672 11.0925C29.8387 10.2923 31.1409 9.86894 32.4377 9.86894C36.0206 9.86894 38.9355 12.8316 38.9355 16.4733C38.9355 19.7247 38.2666 22.8879 37.007 25.8199C33.4255 26.1913 29.3061 26.3935 25 26.3935C20.2759 26.3935 16.2733 26.1661 12.9961 25.8262C11.7342 22.8927 11.0645 19.727 11.0645 16.4733C11.0645 12.8316 13.9794 9.86894 17.5623 9.86894ZM6.41935 20.0984C6.84593 20.0984 7.19355 20.4518 7.19355 20.8853C7.19355 21.3189 6.84593 21.6722 6.41935 21.6722C5.99277 21.6722 5.64516 21.3189 5.64516 20.8853C5.64516 20.4518 5.99277 20.0984 6.41935 20.0984ZM2.54529 23.2735C2.54684 23.268 2.73032 22.8148 4.5071 22.2207C4.92593 22.8384 5.62658 23.246 6.41935 23.246C7.57987 23.246 8.53522 22.3741 8.70632 21.2426C9.10503 21.1749 9.51767 21.1096 9.94503 21.0474C10.2307 22.6117 10.648 24.1446 11.2209 25.6224C5.76826 24.9315 2.78529 23.9298 2.54529 23.2735ZM34.8392 29.7999C32.9719 32.5414 31.6217 35.5725 30.825 38.8082L29.9966 42.1753C29.8898 42.6128 29.505 42.9181 29.0614 42.9181C28.5295 42.9181 28.0968 42.4782 28.0968 41.9376V31.9017C28.0968 30.1658 26.7079 28.7542 25 28.7542C23.2921 28.7542 21.9032 30.1658 21.9032 31.9017V41.9376C21.9032 42.4782 21.4704 42.9181 20.9386 42.9181C20.495 42.9181 20.1102 42.6128 20.0026 42.1761L19.1742 38.809C18.3783 35.5733 17.0281 32.5422 15.16 29.8007C14.6475 29.0485 14.1961 28.2647 13.7773 27.4668C19.2663 27.9555 24.5417 27.9673 25 27.9673C28.9786 27.9673 32.8085 27.7965 36.215 27.4802C35.7977 28.2734 35.3486 29.0524 34.8392 29.7999ZM43.5806 26.3935C43.1541 26.3935 42.8064 26.0402 42.8064 25.6066C42.8064 25.1731 43.1541 24.8197 43.5806 24.8197C44.0072 24.8197 44.3548 25.1731 44.3548 25.6066C44.3548 26.0402 44.0072 26.3935 43.5806 26.3935ZM45.6516 24.2186C45.599 24.2367 45.5587 24.2729 45.513 24.3012C45.0965 23.6662 44.3866 23.246 43.5806 23.246C42.4085 23.246 41.4462 24.1367 41.2898 25.2848C41.2371 25.2824 41.1868 25.2698 41.1334 25.2785C40.3933 25.4013 39.5982 25.5114 38.7814 25.6153C39.3535 24.1399 39.7701 22.6094 40.055 21.0466C45.7546 21.8807 47.3355 22.9289 47.4547 23.2184C47.4531 23.2232 47.2627 23.6567 45.6516 24.2186Z" fill="white"/>
<path d="M11.8387 41.3442H1.77419C1.34684 41.3442 1 41.6959 1 42.1311V46.0655C1 46.5007 1.34684 46.8524 1.77419 46.8524C2.20155 46.8524 2.54839 46.5007 2.54839 46.0655V42.918H11.8387C12.2661 42.918 12.6129 42.5662 12.6129 42.1311C12.6129 41.6959 12.2661 41.3442 11.8387 41.3442Z" fill="white"/>
<path d="M1.77419 50C2.20177 50 2.54839 49.6477 2.54839 49.2131C2.54839 48.7785 2.20177 48.4262 1.77419 48.4262C1.34662 48.4262 1 48.7785 1 49.2131C1 49.6477 1.34662 50 1.77419 50Z" fill="white"/>
<path d="M11.8387 35.0491H2.54839V31.9016C2.54839 31.4664 2.20155 31.1147 1.77419 31.1147C1.34684 31.1147 1 31.4664 1 31.9016V35.836C1 36.2711 1.34684 36.6229 1.77419 36.6229H11.8387C12.2661 36.6229 12.6129 36.2711 12.6129 35.836C12.6129 35.4008 12.2661 35.0491 11.8387 35.0491Z" fill="white"/>
<path d="M1.77419 29.541C2.20177 29.541 2.54839 29.1887 2.54839 28.7541C2.54839 28.3195 2.20177 27.9672 1.77419 27.9672C1.34662 27.9672 1 28.3195 1 28.7541C1 29.1887 1.34662 29.541 1.77419 29.541Z" fill="white"/>
<path d="M1.77419 39.7705C2.20177 39.7705 2.54839 39.4182 2.54839 38.9836C2.54839 38.549 2.20177 38.1967 1.77419 38.1967C1.34662 38.1967 1 38.549 1 38.9836C1 39.4182 1.34662 39.7705 1.77419 39.7705Z" fill="white"/>
<path d="M11.8387 38.1967H4.87099C4.44364 38.1967 4.0968 38.5485 4.0968 38.9836C4.0968 39.4187 4.44364 39.7705 4.87099 39.7705H11.8387C12.2661 39.7705 12.6129 39.4187 12.6129 38.9836C12.6129 38.5485 12.2661 38.1967 11.8387 38.1967Z" fill="white"/>
<path d="M14.9355 46.0656C15.363 46.0656 15.7097 45.7133 15.7097 45.2787C15.7097 44.8442 15.363 44.4919 14.9355 44.4919C14.5079 44.4919 14.1613 44.8442 14.1613 45.2787C14.1613 45.7133 14.5079 46.0656 14.9355 46.0656Z" fill="white"/>
<path d="M11.8387 44.4919H4.87099C4.44364 44.4919 4.0968 44.8436 4.0968 45.2787C4.0968 45.7139 4.44364 46.0656 4.87099 46.0656H11.8387C12.2661 46.0656 12.6129 45.7139 12.6129 45.2787C12.6129 44.8436 12.2661 44.4919 11.8387 44.4919Z" fill="white"/>
<path d="M35.0645 46.0656C35.4921 46.0656 35.8387 45.7133 35.8387 45.2787C35.8387 44.8442 35.4921 44.4919 35.0645 44.4919C34.637 44.4919 34.2903 44.8442 34.2903 45.2787C34.2903 45.7133 34.637 46.0656 35.0645 46.0656Z" fill="white"/>
<path d="M45.129 44.4919H38.1613C37.7339 44.4919 37.3871 44.8436 37.3871 45.2787C37.3871 45.7139 37.7339 46.0656 38.1613 46.0656H45.129C45.5564 46.0656 45.9032 45.7139 45.9032 45.2787C45.9032 44.8436 45.5564 44.4919 45.129 44.4919Z" fill="white"/>
<path d="M48.2258 41.3442H38.1613C37.7339 41.3442 37.3871 41.6959 37.3871 42.1311C37.3871 42.5662 37.7339 42.918 38.1613 42.918H47.4516V46.0655C47.4516 46.5007 47.7984 46.8524 48.2258 46.8524C48.6531 46.8524 49 46.5007 49 46.0655V42.1311C49 41.6959 48.6531 41.3442 48.2258 41.3442Z" fill="white"/>
<path d="M48.2258 50C48.6534 50 49 49.6477 49 49.2131C49 48.7785 48.6534 48.4262 48.2258 48.4262C47.7982 48.4262 47.4516 48.7785 47.4516 49.2131C47.4516 49.6477 47.7982 50 48.2258 50Z" fill="white"/>
<path d="M48.2258 31.1147C47.7984 31.1147 47.4516 31.4664 47.4516 31.9016V35.0491H38.1613C37.7339 35.0491 37.3871 35.4008 37.3871 35.836C37.3871 36.2711 37.7339 36.6229 38.1613 36.6229H48.2258C48.6531 36.6229 49 36.2711 49 35.836V31.9016C49 31.4664 48.6531 31.1147 48.2258 31.1147Z" fill="white"/>
<path d="M48.2258 29.541C48.6534 29.541 49 29.1887 49 28.7541C49 28.3195 48.6534 27.9672 48.2258 27.9672C47.7982 27.9672 47.4516 28.3195 47.4516 28.7541C47.4516 29.1887 47.7982 29.541 48.2258 29.541Z" fill="white"/>
<path d="M48.2258 39.7705C48.6534 39.7705 49 39.4182 49 38.9836C49 38.549 48.6534 38.1967 48.2258 38.1967C47.7982 38.1967 47.4516 38.549 47.4516 38.9836C47.4516 39.4182 47.7982 39.7705 48.2258 39.7705Z" fill="white"/>
<path d="M38.1613 39.7705H45.129C45.5564 39.7705 45.9032 39.4187 45.9032 38.9836C45.9032 38.5485 45.5564 38.1967 45.129 38.1967H38.1613C37.7339 38.1967 37.3871 38.5485 37.3871 38.9836C37.3871 39.4187 37.7339 39.7705 38.1613 39.7705Z" fill="white"/>
<path d="M1.77419 13.8034C2.20155 13.8034 2.54839 13.4508 2.54839 13.0165V9.86894H9.51613C9.94348 9.86894 10.2903 9.51641 10.2903 9.08205C10.2903 8.64769 9.94348 8.29517 9.51613 8.29517H1.77419C1.34684 8.29517 1 8.64769 1 9.08205V13.0165C1 13.4508 1.34684 13.8034 1.77419 13.8034Z" fill="white"/>
<path d="M1.77419 16.9508C2.20177 16.9508 2.54839 16.5985 2.54839 16.1639C2.54839 15.7293 2.20177 15.377 1.77419 15.377C1.34662 15.377 1 15.7293 1 16.1639C1 16.5985 1.34662 16.9508 1.77419 16.9508Z" fill="white"/>
<path d="M1.77419 3.57377H11.0645C11.4919 3.57377 11.8387 3.22125 11.8387 2.78688C11.8387 2.35252 11.4919 2 11.0645 2H1.77419C1.34684 2 1 2.35252 1 2.78688C1 3.22125 1.34684 3.57377 1.77419 3.57377Z" fill="white"/>
<path d="M1.77419 6.72126C2.20177 6.72126 2.54839 6.36896 2.54839 5.93438C2.54839 5.49979 2.20177 5.14749 1.77419 5.14749C1.34662 5.14749 1 5.49979 1 5.93438C1 6.36896 1.34662 6.72126 1.77419 6.72126Z" fill="white"/>
<path d="M11.0645 5.14749H4.871C4.44364 5.14749 4.0968 5.50002 4.0968 5.93438C4.0968 6.36874 4.44364 6.72126 4.871 6.72126H11.0645C11.4919 6.72126 11.8387 6.36874 11.8387 5.93438C11.8387 5.50002 11.4919 5.14749 11.0645 5.14749Z" fill="white"/>
<path d="M48.2258 8.29517H40.4838C40.0565 8.29517 39.7096 8.64769 39.7096 9.08205C39.7096 9.51641 40.0565 9.86894 40.4838 9.86894H47.4516V13.0165C47.4516 13.4508 47.7984 13.8034 48.2258 13.8034C48.6531 13.8034 49 13.4508 49 13.0165V9.08205C49 8.64769 48.6531 8.29517 48.2258 8.29517Z" fill="white"/>
<path d="M48.2258 16.9508C48.6534 16.9508 49 16.5985 49 16.1639C49 15.7293 48.6534 15.377 48.2258 15.377C47.7982 15.377 47.4516 15.7293 47.4516 16.1639C47.4516 16.5985 47.7982 16.9508 48.2258 16.9508Z" fill="white"/>
<path d="M38.9355 3.57377H48.2258C48.6531 3.57377 49 3.22125 49 2.78688C49 2.35252 48.6531 2 48.2258 2H38.9355C38.5081 2 38.1613 2.35252 38.1613 2.78688C38.1613 3.22125 38.5081 3.57377 38.9355 3.57377Z" fill="white"/>
<path d="M48.2258 6.72126C48.6534 6.72126 49 6.36896 49 5.93438C49 5.49979 48.6534 5.14749 48.2258 5.14749C47.7982 5.14749 47.4516 5.49979 47.4516 5.93438C47.4516 6.36896 47.7982 6.72126 48.2258 6.72126Z" fill="white"/>
<path d="M35.8387 3.57377C36.2663 3.57377 36.6129 3.22147 36.6129 2.78688C36.6129 2.3523 36.2663 2 35.8387 2C35.4111 2 35.0645 2.3523 35.0645 2.78688C35.0645 3.22147 35.4111 3.57377 35.8387 3.57377Z" fill="white"/>
<path d="M14.1613 3.57377C14.5889 3.57377 14.9355 3.22147 14.9355 2.78688C14.9355 2.3523 14.5889 2 14.1613 2C13.7337 2 13.3871 2.3523 13.3871 2.78688C13.3871 3.22147 13.7337 3.57377 14.1613 3.57377Z" fill="white"/>
<path d="M38.9355 6.72126H45.129C45.5564 6.72126 45.9032 6.36874 45.9032 5.93438C45.9032 5.50002 45.5564 5.14749 45.129 5.14749H38.9355C38.5081 5.14749 38.1613 5.50002 38.1613 5.93438C38.1613 6.36874 38.5081 6.72126 38.9355 6.72126Z" fill="white"/>
<path d="M25.0002 15.377C26.9372 15.377 28.8061 14.7978 30.404 13.7009C30.7586 13.4578 30.8515 12.9683 30.6131 12.6079C30.3731 12.2475 29.8931 12.1523 29.5377 12.3955C28.196 13.3169 26.6275 13.8032 25.0002 13.8032C23.3728 13.8032 21.8043 13.3169 20.4626 12.397C20.108 12.1539 19.6273 12.2491 19.388 12.6095C19.1488 12.9699 19.2425 13.4585 19.5971 13.7017C21.195 14.7978 23.0639 15.377 25.0002 15.377Z" fill="white"/>
</g>
<defs>
<clipPath id="clip0">
<rect width="49" height="49" fill="white"/>
</clipPath>
</defs>
</svg>
